<svg width="64" height="64" viewBox="0 0 64 64" fill="none" xmlns="http://www.w3.org/2000/svg">
<path d="M48 49.3334C50.2134 49.3334 52 47.5467 52 45.3334C52 43.1201 50.2134 41.3334 48 41.3334C45.7867 41.3334 44 43.1201 44 45.3334C44 47.5467 45.7867 49.3334 48 49.3334ZM52 25.3334H45.3334V32.0001H57.2267L52 25.3334ZM16 49.3334C18.2134 49.3334 20 47.5467 20 45.3334C20 43.1201 18.2134 41.3334 16 41.3334C13.7867 41.3334 12 43.1201 12 45.3334C12 47.5467 13.7867 49.3334 16 49.3334ZM53.3334 21.3334L61.3334 32.0001V45.3334H56C56 49.7601 52.4267 53.3334 48 53.3334C43.5734 53.3334 40 49.7601 40 45.3334H24C24 49.7601 20.4267 53.3334 16 53.3334C11.5734 53.3334 8.00002 49.7601 8.00002 45.3334H2.66669V16.0001C2.66669 13.0401 5.04002 10.6667 8.00002 10.6667H45.3334V21.3334H53.3334ZM8.00002 16.0001V40.0001H10.0267C11.4934 38.3734 13.6267 37.3334 16 37.3334C18.3734 37.3334 20.5067 38.3734 21.9734 40.0001H40V16.0001H8.00002ZM26.6667 18.6667L36 28.0001L26.6667 37.3334V30.6667H13.3334V25.3334H26.6667V18.6667Z" fill="#1E1E1E"/>
</svg>
