<svg width="64" height="64" viewBox="0 0 64 64" fill="none" xmlns="http://www.w3.org/2000/svg">
<path d="M45.3333 40.5866C45.3333 43.1999 43.2 45.3332 40.5867 45.3332C37.9733 45.3332 35.8667 43.1999 35.8667 40.5866C35.8667 37.9733 37.9733 35.8666 40.5867 35.8666C43.2 35.8666 45.3333 37.9733 45.3333 40.5866ZM23.5467 28.2666C26.16 28.2666 28.2667 26.1599 28.2667 23.5466C28.2667 20.9066 26.16 18.7999 23.5467 18.7999C20.9067 18.7999 18.8 20.9066 18.8 23.5466C18.8 26.1599 20.9067 28.2666 23.5467 28.2666ZM18.6667 41.4132L22.6667 45.4132L45.4133 22.6666L41.4133 18.6666L18.6667 41.4132ZM58.6667 31.9999C58.6667 46.6666 46.6667 58.6666 32 58.6666C17.3333 58.6666 5.33334 46.6666 5.33334 31.9999C5.33334 17.3333 17.3333 5.33325 32 5.33325C46.6667 5.33325 58.6667 17.3333 58.6667 31.9999ZM53.3333 31.9999C53.3333 20.2399 43.76 10.6666 32 10.6666C20.24 10.6666 10.6667 20.2399 10.6667 31.9999C10.6667 43.7599 20.24 53.3332 32 53.3332C43.76 53.3332 53.3333 43.7599 53.3333 31.9999Z" fill="#1E1E1E"/>
</svg>
