<svg width="17" height="30" viewBox="0 0 17 30" fill="none" xmlns="http://www.w3.org/2000/svg">
<path d="M3.31249 28.6501L15.95 16.0501C16.1 15.9001 16.206 15.7376 16.268 15.5626C16.331 15.3876 16.3625 15.2001 16.3625 15.0001C16.3625 14.8001 16.331 14.6126 16.268 14.4376C16.206 14.2626 16.1 14.1001 15.95 13.9501L3.31249 1.3126C2.96249 0.962598 2.52499 0.787598 1.99999 0.787598C1.47499 0.787598 1.02499 0.975098 0.649988 1.3501C0.274988 1.7251 0.0874882 2.1626 0.0874882 2.6626C0.0874882 3.1626 0.274988 3.6001 0.649988 3.9751L11.675 15.0001L0.649988 26.0251C0.299988 26.3751 0.124989 26.8061 0.124989 27.3181C0.124989 27.8311 0.312489 28.2751 0.687489 28.6501C1.06249 29.0251 1.49999 29.2126 1.99999 29.2126C2.49999 29.2126 2.93749 29.0251 3.31249 28.6501Z" fill="white"/>
</svg>
