<svg width="16" height="26" viewBox="0 0 16 26" fill="none" xmlns="http://www.w3.org/2000/svg">
<path d="M3.8336 25.1333L15.0669 13.9333C15.2003 13.8 15.2945 13.6556 15.3496 13.5C15.4056 13.3444 15.4336 13.1778 15.4336 13C15.4336 12.8222 15.4056 12.6556 15.3496 12.5C15.2945 12.3444 15.2003 12.2 15.0669 12.0667L3.83359 0.833336C3.52248 0.522225 3.13359 0.36667 2.66693 0.36667C2.20026 0.36667 1.80026 0.533337 1.46693 0.86667C1.13359 1.2 0.966928 1.58889 0.966928 2.03334C0.966928 2.47778 1.13359 2.86667 1.46693 3.2L11.2669 13L1.46693 22.8C1.15582 23.1111 1.00026 23.4942 1.00026 23.9493C1.00026 24.4053 1.16693 24.8 1.50026 25.1333C1.8336 25.4667 2.22248 25.6333 2.66693 25.6333C3.11137 25.6333 3.50026 25.4667 3.8336 25.1333Z" fill="#1E1E1E"/>
</svg>
