<svg width="36" height="36" viewBox="0 0 36 36" fill="none" xmlns="http://www.w3.org/2000/svg">
<path d="M18 0C20.8643 0 23.6114 1.19774 25.6368 3.32973C27.6621 5.46173 28.8 8.35333 28.8 11.3684V13.2632H36V17.0526H33.8994L32.5368 34.2625C32.4993 34.736 32.2943 35.1774 31.9622 35.4992C31.6301 35.821 31.1954 35.9997 30.744 36H5.256C4.80464 35.9997 4.36985 35.821 4.0378 35.4992C3.70574 35.1774 3.50066 34.736 3.4632 34.2625L2.0988 17.0526H0V13.2632H7.2V11.3684C7.2 8.35333 8.33785 5.46173 10.3632 3.32973C12.3886 1.19774 15.1357 0 18 0ZM30.2868 17.0526H5.7114L6.912 32.2105H29.0862L30.2868 17.0526ZM19.8 20.8421V28.4211H16.2V20.8421H19.8ZM12.6 20.8421V28.4211H9V20.8421H12.6ZM27 20.8421V28.4211H23.4V20.8421H27ZM18 3.78947C16.1528 3.78947 14.3762 4.53682 13.0377 5.87695C11.6993 7.21708 10.9014 9.04745 10.809 10.9895L10.8 11.3684V13.2632H25.2V11.3684C25.2 9.42396 24.49 7.55388 23.2169 6.14499C21.9438 4.73609 20.2049 3.89617 18.36 3.79895L18 3.78947Z" fill="black"/>
</svg>
