<svg width="64" height="46" viewBox="0 0 64 46" fill="none" xmlns="http://www.w3.org/2000/svg">
<path d="M49.4545 41.6875C51.8691 41.6875 53.8182 39.7612 53.8182 37.375C53.8182 34.9888 51.8691 33.0625 49.4545 33.0625C47.04 33.0625 45.0909 34.9888 45.0909 37.375C45.0909 39.7612 47.04 41.6875 49.4545 41.6875ZM53.8182 15.8125H46.5455V23H59.52L53.8182 15.8125ZM14.5455 41.6875C16.96 41.6875 18.9091 39.7612 18.9091 37.375C18.9091 34.9888 16.96 33.0625 14.5455 33.0625C12.1309 33.0625 10.1818 34.9888 10.1818 37.375C10.1818 39.7612 12.1309 41.6875 14.5455 41.6875ZM55.2727 11.5L64 23V37.375H58.1818C58.1818 42.1475 54.2836 46 49.4545 46C44.6255 46 40.7273 42.1475 40.7273 37.375H23.2727C23.2727 42.1475 19.3745 46 14.5455 46C9.71636 46 5.81818 42.1475 5.81818 37.375H0V5.75C0 2.55875 2.58909 0 5.81818 0H46.5455V11.5H55.2727ZM5.81818 5.75V31.625H8.02909C9.62909 29.8713 11.9564 28.75 14.5455 28.75C17.1345 28.75 19.4618 29.8713 21.0618 31.625H40.7273V5.75H5.81818ZM26.1818 8.625L36.3636 18.6875L26.1818 28.75V21.5625H11.6364V15.8125H26.1818V8.625Z" fill="#AD6ED3"/>
</svg>
