<svg width="26" height="25" viewBox="0 0 26 25" fill="none" xmlns="http://www.w3.org/2000/svg">
<path d="M24.07 0.995555C23.749 1.01891 23.4339 1.09422 23.137 1.21855H23.133C22.848 1.33155 21.493 1.90155 19.433 2.76555L12.051 5.87455C6.754 8.10455 1.547 10.3006 1.547 10.3006L1.609 10.2766C1.609 10.2766 1.25 10.3946 0.874997 10.6516C0.643324 10.799 0.44397 10.9919 0.288997 11.2186C0.104997 11.4886 -0.0430034 11.9016 0.0119966 12.3286C0.101997 13.0506 0.569996 13.4836 0.905996 13.7226C1.246 13.9646 1.57 14.0776 1.57 14.0776H1.578L6.461 15.7226C6.68 16.4256 7.949 20.5976 8.254 21.5586C8.434 22.1326 8.609 22.4916 8.828 22.7656C8.934 22.9056 9.058 23.0226 9.207 23.1166C9.28446 23.1616 9.36705 23.1972 9.453 23.2226L9.403 23.2106C9.418 23.2146 9.43 23.2266 9.441 23.2306C9.481 23.2416 9.508 23.2456 9.559 23.2536C10.332 23.4876 10.953 23.0076 10.953 23.0076L10.988 22.9796L13.871 20.3546L18.703 24.0616L18.813 24.1086C19.82 24.5506 20.84 24.3046 21.379 23.8706C21.922 23.4336 22.133 22.8746 22.133 22.8746L22.168 22.7846L25.902 3.65555C26.008 3.18355 26.035 2.74155 25.918 2.31255C25.7973 1.87838 25.5188 1.50496 25.137 1.26555C24.8164 1.07067 24.4447 0.976603 24.07 0.995555ZM23.969 3.04555C23.965 3.10855 23.977 3.10155 23.949 3.22255V3.23355L20.25 22.1636C20.234 22.1906 20.207 22.2496 20.133 22.3086C20.055 22.3706 19.993 22.4096 19.668 22.2806L13.758 17.7496L10.188 21.0036L10.938 16.2136L20.594 7.21355C20.992 6.84355 20.859 6.76555 20.859 6.76555C20.887 6.31155 20.258 6.63256 20.258 6.63256L8.082 14.1756L8.078 14.1556L2.242 12.1906V12.1866L2.227 12.1836C2.23723 12.1802 2.24725 12.1762 2.257 12.1716L2.289 12.1556L2.32 12.1446C2.32 12.1446 7.531 9.94855 12.828 7.71855C15.48 6.60155 18.152 5.47655 20.207 4.60855C21.4257 4.09556 22.6457 3.58556 23.867 3.07855C23.949 3.04655 23.91 3.04555 23.969 3.04555Z" fill="#1E1E1E"/>
</svg>
