<svg width="24" height="25" viewBox="0 0 24 25" fill="none" xmlns="http://www.w3.org/2000/svg">
<path fill-rule="evenodd" clip-rule="evenodd" d="M20.504 3.50404C19.3967 2.38985 18.0793 1.50643 16.6281 0.904958C15.1769 0.303484 13.6209 -0.00409309 12.05 4.11293e-05C5.465 4.11293e-05 0.0999999 5.36004 0.0999999 11.945C0.0950091 14.0418 0.644956 16.1026 1.694 17.918L0 24.109L6.336 22.445C8.08799 23.3994 10.0509 23.9003 12.046 23.902H12.051C18.637 23.902 23.996 18.543 24 11.953C24 8.76204 22.758 5.76204 20.504 3.50304V3.50404ZM12.05 21.883H12.046C10.2676 21.883 8.52175 21.4054 6.991 20.5L6.628 20.285L2.866 21.27L3.87 17.605L3.636 17.23C2.6406 15.6472 2.11362 13.8149 2.116 11.945C2.116 6.47304 6.573 2.02004 12.054 2.02004C13.3584 2.01678 14.6505 2.2723 15.8555 2.77181C17.0605 3.27131 18.1544 4.00488 19.074 4.93004C19.9981 5.85077 20.7306 6.94545 21.2292 8.15088C21.7278 9.3563 21.9826 10.6486 21.979 11.953C21.979 17.43 17.523 21.883 12.05 21.883ZM17.495 14.445C17.198 14.297 15.729 13.575 15.456 13.477C15.183 13.375 14.983 13.328 14.784 13.625C14.584 13.925 14.014 14.598 13.839 14.797C13.667 14.992 13.491 15.02 13.194 14.871C12.894 14.723 11.933 14.406 10.792 13.387C9.905 12.597 9.304 11.617 9.132 11.32C8.956 11.02 9.112 10.86 9.261 10.71C9.397 10.578 9.561 10.363 9.71 10.187C9.858 10.016 9.91 9.89104 10.01 9.69104C10.108 9.49204 10.058 9.31604 9.983 9.16804C9.909 9.02004 9.312 7.54704 9.062 6.94904C8.819 6.36704 8.573 6.44904 8.39 6.43804C8.218 6.43004 8.019 6.43004 7.82 6.43004C7.62 6.43004 7.296 6.50404 7.022 6.80504C6.749 7.10204 5.979 7.82504 5.979 9.29304C5.979 10.762 7.049 12.183 7.199 12.383C7.347 12.578 9.304 15.593 12.299 16.887C12.854 17.1271 13.4215 17.337 13.999 17.516C14.714 17.742 15.366 17.711 15.882 17.636C16.456 17.551 17.647 16.914 17.897 16.215C18.144 15.52 18.144 14.922 18.069 14.797C17.995 14.672 17.796 14.597 17.495 14.445Z" fill="#1E1E1E"/>
</svg>
