<svg width="416" height="416" viewBox="0 0 416 416" fill="none" xmlns="http://www.w3.org/2000/svg">
<path d="M208 34.6665C185.237 34.6665 162.698 39.1499 141.668 47.8607C120.638 56.5715 101.53 69.3392 85.4347 85.4347C52.9284 117.941 34.6665 162.029 34.6665 208C34.6665 253.971 52.9284 298.059 85.4347 330.565C101.53 346.66 120.638 359.428 141.668 368.139C162.698 376.85 185.237 381.333 208 381.333C253.971 381.333 298.059 363.071 330.565 330.565C363.071 298.059 381.333 253.971 381.333 208C381.333 187.893 377.693 167.96 370.76 149.24L343.026 176.973C345.453 187.2 346.666 197.6 346.666 208C346.666 244.777 332.057 280.047 306.052 306.052C280.047 332.057 244.777 346.666 208 346.666C171.223 346.666 135.953 332.057 109.948 306.052C83.9426 280.047 69.3332 244.777 69.3332 208C69.3332 171.223 83.9426 135.953 109.948 109.948C135.953 83.9426 171.223 69.3332 208 69.3332C218.4 69.3332 228.8 70.5465 239.026 72.9732L266.933 45.0665C248.04 38.3065 228.106 34.6665 208 34.6665ZM329.333 34.6665L260 104V130L215.8 174.2C213.2 173.333 210.6 173.333 208 173.333C198.806 173.333 189.988 176.986 183.487 183.487C176.986 189.988 173.333 198.806 173.333 208C173.333 217.194 176.986 226.012 183.487 232.513C189.988 239.014 198.806 242.666 208 242.666C217.194 242.666 226.012 239.014 232.513 232.513C239.014 226.012 242.666 217.194 242.666 208C242.666 205.4 242.666 202.8 241.8 200.2L286 156H312L381.333 86.6665H329.333V34.6665ZM208 104C180.417 104 153.965 114.957 134.461 134.461C114.957 153.965 104 180.417 104 208C104 235.582 114.957 262.035 134.461 281.539C153.965 301.043 180.417 312 208 312C235.582 312 262.035 301.043 281.539 281.539C301.043 262.035 312 235.582 312 208H277.333C277.333 226.388 270.028 244.023 257.026 257.026C244.023 270.028 226.388 277.333 208 277.333C189.611 277.333 171.976 270.028 158.974 257.026C145.971 244.023 138.666 226.388 138.666 208C138.666 189.611 145.971 171.976 158.974 158.974C171.976 145.971 189.611 138.666 208 138.666V104Z" fill="url(#paint0_linear_253_2861)" fill-opacity="0.4"/>
<defs>
<linearGradient id="paint0_linear_253_2861" x1="171.918" y1="554.666" x2="399.025" y2="511.669" gradientUnits="userSpaceOnUse">
<stop stop-color="#AD6ED3"/>
<stop offset="1" stop-color="#EFA1C3"/>
</linearGradient>
</defs>
</svg>
