<svg width="128" height="128" viewBox="0 0 128 128" fill="none" xmlns="http://www.w3.org/2000/svg">
<rect y="-0.000976562" width="128" height="128" rx="35" fill="#2DAB2B"/>
<path d="M53.3342 72.5323L84.8009 41.0657C85.7787 40.0879 87.0231 39.599 88.5342 39.599C90.0454 39.599 91.2898 40.0879 92.2676 41.0657C93.2454 42.0434 93.7342 43.2879 93.7342 44.799C93.7342 46.3101 93.2454 47.5546 92.2676 48.5323L57.0676 83.7323C56.0009 84.799 54.7565 85.3323 53.3342 85.3323C51.912 85.3323 50.6676 84.799 49.6009 83.7323L35.7342 69.8657C34.7565 68.8879 34.2676 67.6434 34.2676 66.1323C34.2676 64.6212 34.7565 63.3768 35.7342 62.399C36.712 61.4212 37.9565 60.9323 39.4676 60.9323C40.9787 60.9323 42.2231 61.4212 43.2009 62.399L53.3342 72.5323Z" fill="#EFEEEE"/>
</svg>
