<svg width="128" height="129" viewBox="0 0 128 129" fill="none" xmlns="http://www.w3.org/2000/svg">
<rect y="0.30127" width="128" height="128" rx="35" fill="#CF1616"/>
<path d="M97.5992 30.7546C97.1058 30.2602 96.5198 29.8679 95.8746 29.6003C95.2294 29.3326 94.5377 29.1949 93.8392 29.1949C93.1407 29.1949 92.4491 29.3326 91.8039 29.6003C91.1587 29.8679 90.5726 30.2602 90.0792 30.7546L63.9992 56.7812L37.9192 30.7012C37.4255 30.2075 36.8393 29.8158 36.1941 29.5486C35.549 29.2813 34.8575 29.1438 34.1592 29.1438C33.4609 29.1438 32.7695 29.2813 32.1243 29.5486C31.4792 29.8158 30.893 30.2075 30.3992 30.7012C29.9055 31.195 29.5138 31.7812 29.2466 32.4263C28.9793 33.0715 28.8418 33.7629 28.8418 34.4612C28.8418 35.1595 28.9793 35.851 29.2466 36.4961C29.5138 37.1413 29.9055 37.7275 30.3992 38.2212L56.4792 64.3012L30.3992 90.3812C29.9055 90.875 29.5138 91.4612 29.2466 92.1063C28.9793 92.7515 28.8418 93.4429 28.8418 94.1412C28.8418 94.8395 28.9793 95.531 29.2466 96.1761C29.5138 96.8213 29.9055 97.4075 30.3992 97.9012C30.893 98.395 31.4792 98.7867 32.1243 99.0539C32.7695 99.3211 33.4609 99.4587 34.1592 99.4587C34.8575 99.4587 35.549 99.3211 36.1941 99.0539C36.8393 98.7867 37.4255 98.395 37.9192 97.9012L63.9992 71.8212L90.0792 97.9012C90.573 98.395 91.1592 98.7867 91.8043 99.0539C92.4495 99.3211 93.1409 99.4587 93.8392 99.4587C94.5375 99.4587 95.229 99.3211 95.8741 99.0539C96.5193 98.7867 97.1055 98.395 97.5992 97.9012C98.093 97.4075 98.4847 96.8213 98.7519 96.1761C99.0191 95.531 99.1567 94.8395 99.1567 94.1412C99.1567 93.4429 99.0191 92.7515 98.7519 92.1063C98.4847 91.4612 98.093 90.875 97.5992 90.3812L71.5192 64.3012L97.5992 38.2212C99.6259 36.1946 99.6259 32.7812 97.5992 30.7546Z" fill="#EFEEEE"/>
</svg>
