<svg width="255" height="255" viewBox="0 0 255 255" fill="none" xmlns="http://www.w3.org/2000/svg">
<g filter="url(#filter0_f_1122_25665)">
<circle cx="127.5" cy="127.5" r="47.5" fill="url(#paint0_linear_1122_25665)"/>
</g>
<path d="M127 89C129.2 89 131.084 88.216 132.652 86.648C134.217 85.0827 135 83.2 135 81C135 78.8 134.217 76.916 132.652 75.348C131.084 73.7827 129.2 73 127 73C124.8 73 122.917 73.7827 121.352 75.348C119.784 76.916 119 78.8 119 81C119 83.2 119.784 85.0827 121.352 86.648C122.917 88.216 124.8 89 127 89ZM127 118.4C135.133 110.933 141.167 104.149 145.1 98.048C149.033 91.9493 151 86.5333 151 81.8C151 74.5333 148.683 68.5827 144.048 63.948C139.416 59.316 133.733 57 127 57C120.267 57 114.583 59.316 109.948 63.948C105.316 68.5827 103 74.5333 103 81.8C103 86.5333 104.967 91.9493 108.9 98.048C112.833 104.149 118.867 110.933 127 118.4ZM127 127.5C126.467 127.5 125.933 127.4 125.4 127.2C124.867 127 124.4 126.733 124 126.4C114.267 117.8 107 109.817 102.2 102.452C97.4 95.084 95 88.2 95 81.8C95 71.8 98.2173 63.8333 104.652 57.9C111.084 51.9667 118.533 49 127 49C135.467 49 142.916 51.9667 149.348 57.9C155.783 63.8333 159 71.8 159 81.8C159 88.2 156.6 95.084 151.8 102.452C147 109.817 139.733 117.8 130 126.4C129.6 126.733 129.133 127 128.6 127.2C128.067 127.4 127.533 127.5 127 127.5Z" fill="#AD6ED3"/>
<defs>
<filter id="filter0_f_1122_25665" x="0" y="0" width="255" height="255" filterUnits="userSpaceOnUse" color-interpolation-filters="sRGB">
<feFlood flood-opacity="0" result="BackgroundImageFix"/>
<feBlend mode="normal" in="SourceGraphic" in2="BackgroundImageFix" result="shape"/>
<feGaussianBlur stdDeviation="40" result="effect1_foregroundBlur_1122_25665"/>
</filter>
<linearGradient id="paint0_linear_1122_25665" x1="117.612" y1="222.5" x2="179.848" y2="210.717" gradientUnits="userSpaceOnUse">
<stop stop-color="#AD6ED3"/>
<stop offset="1" stop-color="#EFA1C3"/>
</linearGradient>
</defs>
</svg>
