<svg width="316" height="316" viewBox="0 0 316 316" fill="none" xmlns="http://www.w3.org/2000/svg">
<path d="M236.999 243.583C247.928 243.583 256.749 234.762 256.749 223.833C256.749 212.905 247.928 204.083 236.999 204.083C226.071 204.083 217.249 212.905 217.249 223.833C217.249 234.762 226.071 243.583 236.999 243.583ZM256.749 125.083H223.833V158H282.556L256.749 125.083ZM78.9994 243.583C89.9277 243.583 98.7494 234.762 98.7494 223.833C98.7494 212.905 89.9277 204.083 78.9994 204.083C68.071 204.083 59.2494 212.905 59.2494 223.833C59.2494 234.762 68.071 243.583 78.9994 243.583ZM263.333 105.333L302.833 158V223.833H276.499C276.499 245.69 258.856 263.333 236.999 263.333C215.143 263.333 197.499 245.69 197.499 223.833H118.499C118.499 245.69 100.856 263.333 78.9994 263.333C57.1427 263.333 39.4994 245.69 39.4994 223.833H13.166V78.9998C13.166 64.3848 24.8843 52.6665 39.4994 52.6665H223.833V105.333H263.333ZM39.4994 78.9998V197.5H49.506C56.7477 189.468 67.281 184.333 78.9994 184.333C90.7177 184.333 101.251 189.468 108.493 197.5H197.499V78.9998H39.4994ZM131.666 92.1665L177.749 138.25L131.666 184.333V151.417H65.8327V125.083H131.666V92.1665Z" fill="url(#paint0_linear_261_5172)" fill-opacity="0.4"/>
<defs>
<linearGradient id="paint0_linear_261_5172" x1="127.85" y1="368.667" x2="311.942" y2="320.743" gradientUnits="userSpaceOnUse">
<stop stop-color="#AD6ED3"/>
<stop offset="1" stop-color="#EFA1C3"/>
</linearGradient>
</defs>
</svg>
