<svg width="263" height="263" viewBox="0 0 263 263" fill="none" xmlns="http://www.w3.org/2000/svg">
<path d="M109.582 149.033L174.236 84.3793C176.245 82.3702 178.802 81.3657 181.907 81.3657C185.012 81.3657 187.569 82.3702 189.578 84.3793C191.587 86.3883 192.592 88.9452 192.592 92.0501C192.592 95.155 191.587 97.7119 189.578 99.7209L117.253 172.046C115.061 174.238 112.505 175.333 109.582 175.333C106.66 175.333 104.103 174.238 101.911 172.046L73.4198 143.554C71.4108 141.545 70.4062 138.988 70.4062 135.883C70.4062 132.779 71.4108 130.222 73.4198 128.213C75.4288 126.204 77.9858 125.199 81.0906 125.199C84.1955 125.199 86.7524 126.204 88.7615 128.213L109.582 149.033Z" fill="url(#paint0_linear_262_5747)" fill-opacity="0.4"/>
<defs>
<linearGradient id="paint0_linear_262_5747" x1="118.782" y1="222.317" x2="196.959" y2="203.072" gradientUnits="userSpaceOnUse">
<stop stop-color="#AD6ED3"/>
<stop offset="1" stop-color="#EFA1C3"/>
</linearGradient>
</defs>
</svg>
