<svg width="263" height="263" viewBox="0 0 263 263" fill="none" xmlns="http://www.w3.org/2000/svg">
<path d="M131.499 71.2292C151.648 71.1622 171.408 76.7827 188.505 87.4445C205.603 98.1063 219.345 113.377 228.151 131.5C210.07 168.43 173.14 191.771 131.499 191.771C89.857 191.771 52.9274 168.43 34.8462 131.5C43.6525 113.377 57.3944 98.1063 74.4921 87.4445C91.5898 76.7827 111.349 71.1622 131.499 71.2292ZM131.499 49.3125C76.707 49.3125 29.9149 83.3929 10.957 131.5C29.9149 179.607 76.707 213.688 131.499 213.688C186.29 213.688 233.082 179.607 252.04 131.5C233.082 83.3929 186.29 49.3125 131.499 49.3125ZM131.499 104.104C138.765 104.104 145.733 106.991 150.87 112.128C156.008 117.266 158.895 124.234 158.895 131.5C158.895 138.766 156.008 145.734 150.87 150.872C145.733 156.009 138.765 158.896 131.499 158.896C124.233 158.896 117.265 156.009 112.127 150.872C106.989 145.734 104.103 138.766 104.103 131.5C104.103 124.234 106.989 117.266 112.127 112.128C117.265 106.991 124.233 104.104 131.499 104.104ZM131.499 82.1875C104.322 82.1875 82.1862 104.323 82.1862 131.5C82.1862 158.677 104.322 180.812 131.499 180.812C158.675 180.812 180.811 158.677 180.811 131.5C180.811 104.323 158.675 82.1875 131.499 82.1875Z" fill="url(#paint0_linear_262_5680)" fill-opacity="0.4"/>
<defs>
<linearGradient id="paint0_linear_262_5680" x1="106.406" y1="295.875" x2="258.294" y2="253.699" gradientUnits="userSpaceOnUse">
<stop stop-color="#AD6ED3"/>
<stop offset="1" stop-color="#EFA1C3"/>
</linearGradient>
</defs>
</svg>
