<?xml version="1.0" encoding="utf-8"?><svg viewBox="0 0 502.66 502.66" xmlns="http://www.w3.org/2000/svg" xmlns:xlink="http://www.w3.org/1999/xlink"><style>:root>svg{display:none}:root>svg:target{display:block}</style><svg viewBox="0 0 64 64" id="advantages-1" xmlns="http://www.w3.org/2000/svg"><path d="M26.667 5.333a5.315 5.315 0 00-5.334 5.334v8A5.315 5.315 0 0026.667 24h2.666v5.333h-24v5.334H16V40h-2.667A5.315 5.315 0 008 45.333v8a5.315 5.315 0 005.333 5.334H24a5.315 5.315 0 005.333-5.334v-8A5.315 5.315 0 0024 40h-2.667v-5.333h21.334V40H40a5.315 5.315 0 00-5.333 5.333v8A5.315 5.315 0 0040 58.667h10.667A5.315 5.315 0 0056 53.333v-8A5.315 5.315 0 0050.667 40H48v-5.333h10.667v-5.334h-24V24h2.666a5.315 5.315 0 005.334-5.333v-8a5.315 5.315 0 00-5.334-5.334H26.667zm0 5.334h10.666v8H26.667v-8zM13.333 45.333H24v8H13.333v-8zm26.667 0h10.667v8H40v-8z"/></svg><svg viewBox="0 0 64 64" id="advantages-2" xmlns="http://www.w3.org/2000/svg"><path d="M32 5.333l-21.333 8v16.24C10.667 43.04 19.76 55.6 32 58.667 44.24 55.6 53.333 43.04 53.333 29.573v-16.24L32 5.333zm16 24.24c0 10.667-6.8 20.534-16 23.547-9.2-3.013-16-12.853-16-23.547V16.827l16-5.654 16 5.654v12.746zM23.52 28.24L19.733 32l9.44 9.44 15.094-15.093-3.76-3.76L29.2 33.893l-5.68-5.653z"/></svg><svg viewBox="0 0 64 64" id="advantages-3" xmlns="http://www.w3.org/2000/svg"><path d="M45.333 40.587a4.757 4.757 0 01-4.746 4.746c-2.614 0-4.72-2.133-4.72-4.746a4.712 4.712 0 014.72-4.72c2.613 0 4.746 2.106 4.746 4.72zm-21.786-12.32a4.712 4.712 0 004.72-4.72 4.718 4.718 0 00-4.72-4.747 4.723 4.723 0 00-4.747 4.747 4.718 4.718 0 004.747 4.72zm-4.88 13.146l4 4 22.746-22.746-4-4-22.746 22.746zm40-9.413c0 14.667-12 26.667-26.667 26.667-14.667 0-26.667-12-26.667-26.667 0-14.667 12-26.667 26.667-26.667 14.667 0 26.667 12 26.667 26.667zm-5.334 0c0-11.76-9.573-21.333-21.333-21.333-11.76 0-21.333 9.573-21.333 21.333 0 11.76 9.573 21.333 21.333 21.333 11.76 0 21.333-9.573 21.333-21.333z"/></svg><svg viewBox="0 0 64 64" id="advantages-4" xmlns="http://www.w3.org/2000/svg"><path d="M48 49.333c2.213 0 4-1.786 4-4 0-2.213-1.787-4-4-4s-4 1.787-4 4c0 2.214 1.787 4 4 4zm4-24h-6.667V32h11.894L52 25.333zm-36 24c2.213 0 4-1.786 4-4 0-2.213-1.787-4-4-4s-4 1.787-4 4c0 2.214 1.787 4 4 4zm37.333-28l8 10.667v13.333H56c0 4.427-3.573 8-8 8a7.99 7.99 0 01-8-8H24c0 4.427-3.573 8-8 8a7.99 7.99 0 01-8-8H2.667V16A5.315 5.315 0 018 10.667h37.333v10.666h8zM8 16v24h2.027A8.035 8.035 0 0116 37.333 8.035 8.035 0 0121.973 40H40V16H8zm18.667 2.667L36 28l-9.333 9.333v-6.666H13.333v-5.334h13.334v-6.666z"/></svg><svg viewBox="0 0 36 36" id="arrow" xmlns="http://www.w3.org/2000/svg"><path d="M13.313 31.65l12.637-12.6c.15-.15.256-.313.318-.488.063-.175.095-.362.095-.562 0-.2-.032-.387-.095-.563a1.307 1.307 0 00-.318-.487L13.313 4.313c-.35-.35-.788-.525-1.313-.525a1.84 1.84 0 00-1.35.562c-.375.375-.563.813-.563 1.313s.188.937.563 1.312L21.675 18 10.65 29.025c-.35.35-.525.781-.525 1.293 0 .513.188.957.563 1.332.374.375.812.563 1.312.563s.938-.188 1.313-.563z"/></svg><svg viewBox="0 0 36 37" id="arrow-bottom" xmlns="http://www.w3.org/2000/svg"><path d="M4.35 13.812l12.6 12.638c.15.15.313.256.488.318.175.063.362.094.562.094.2 0 .387-.031.563-.094.175-.062.337-.168.487-.318l12.637-12.638c.35-.35.525-.787.525-1.312s-.187-.975-.562-1.35c-.375-.375-.813-.563-1.313-.563s-.937.188-1.312.563L18 22.175 6.975 11.15a1.757 1.757 0 00-1.293-.525 1.82 1.82 0 00-1.332.562c-.375.375-.562.813-.562 1.313s.187.937.562 1.312z"/></svg><svg viewBox="0 0 16 26" id="arrow-catalog" xmlns="http://www.w3.org/2000/svg"><path d="M3.834 25.133l11.233-11.2a1.16 1.16 0 00.283-.433c.056-.156.084-.322.084-.5s-.028-.344-.084-.5a1.16 1.16 0 00-.283-.433L3.834.833c-.312-.31-.7-.466-1.167-.466-.467 0-.867.166-1.2.5-.333.333-.5.722-.5 1.166 0 .445.167.834.5 1.167l9.8 9.8-9.8 9.8A1.562 1.562 0 001 23.95c0 .455.167.85.5 1.183.334.334.722.5 1.167.5.444 0 .833-.166 1.167-.5z"/></svg><svg viewBox="0 0 33 16" id="arrow-line" xmlns="http://www.w3.org/2000/svg"><path d="M32.707 8.707a1 1 0 000-1.414L26.343.929a1 1 0 10-1.414 1.414L30.586 8l-5.657 5.657a1 1 0 001.414 1.414l6.364-6.364zM0 9h32V7H0v2z" fill-opacity=".5"/></svg><svg viewBox="0 0 17 30" id="arrow-slider" xmlns="http://www.w3.org/2000/svg"><path d="M3.312 28.65l12.638-12.6c.15-.15.256-.312.318-.487.063-.175.095-.363.095-.563 0-.2-.032-.387-.095-.562a1.307 1.307 0 00-.318-.488L3.312 1.313C2.962.963 2.525.788 2 .788S1.025.975.65 1.35c-.375.375-.563.813-.563 1.313S.275 3.6.65 3.975L11.675 15 .65 26.025c-.35.35-.525.781-.525 1.293 0 .513.187.957.562 1.332.375.375.813.563 1.313.563s.937-.188 1.312-.563z"/></svg><svg viewBox="0 0 64 64" id="bascet" xmlns="http://www.w3.org/2000/svg"><path d="M32 0c5.092 0 9.976 2.13 13.577 5.92 3.6 3.79 5.623 8.93 5.623 14.29v3.369H64v6.737h-3.734L57.843 60.91a3.439 3.439 0 01-1.021 2.199c-.59.572-1.364.89-2.166.89H9.344a3.114 3.114 0 01-2.166-.89 3.439 3.439 0 01-1.021-2.199L3.73 30.316H0v-6.737h12.8V20.21c0-5.36 2.023-10.5 5.624-14.29C22.024 2.13 26.908 0 32 0zm21.843 30.316h-43.69l2.135 26.947h39.42l2.135-26.947zM35.2 37.053v13.473h-6.4V37.053h6.4zm-12.8 0v13.473H16V37.053h6.4zm25.6 0v13.473h-6.4V37.053H48zM32 6.737c-3.284 0-6.442 1.328-8.822 3.71-2.38 2.383-3.798 5.637-3.962 9.09l-.016.674v3.368h25.6V20.21c0-3.456-1.262-6.78-3.525-9.286-2.264-2.504-5.355-3.997-8.635-4.17L32 6.737z"/></svg><svg viewBox="0 0 36 36" id="basket" xmlns="http://www.w3.org/2000/svg"><path d="M18 0c2.864 0 5.611 1.198 7.637 3.33 2.025 2.132 3.163 5.023 3.163 8.038v1.895H36v3.79h-2.1l-1.363 17.21a1.934 1.934 0 01-.575 1.236c-.332.322-.767.5-1.218.501H5.256c-.451 0-.886-.179-1.218-.5a1.934 1.934 0 01-.575-1.237L2.1 17.053H0v-3.79h7.2v-1.895c0-3.015 1.138-5.906 3.163-8.038C12.39 1.198 15.136 0 18 0zm12.287 17.053H5.71L6.912 32.21h22.174l1.2-15.158zM19.8 20.843v7.578h-3.6v-7.579h3.6zm-7.2 0v7.578H9v-7.579h3.6zm14.4 0v7.578h-3.6v-7.579H27zM18 3.788c-1.847 0-3.624.748-4.962 2.088-1.339 1.34-2.137 3.17-2.229 5.112l-.009.38v1.894h14.4v-1.895c0-1.944-.71-3.814-1.983-5.223-1.273-1.409-3.012-2.249-4.857-2.346l-.36-.01z"/></svg><svg viewBox="0 0 41 45" id="close" xmlns="http://www.w3.org/2000/svg"><path d="M10.439 33.376l19.868-21.752M30.307 33.808L10.439 12.056"/></svg><svg viewBox="0 0 50 50" id="close-menu" xmlns="http://www.w3.org/2000/svg"><path d="M12.744 37.184l24.44-24.701M37.184 37.443l-24.44-24.7"/></svg><svg viewBox="0 0 64 46" id="delivery" xmlns="http://www.w3.org/2000/svg"><path d="M49.455 41.688c2.414 0 4.363-1.927 4.363-4.313 0-2.386-1.949-4.313-4.363-4.313-2.415 0-4.364 1.927-4.364 4.313 0 2.386 1.949 4.313 4.364 4.313zm4.363-25.876h-7.273V23H59.52l-5.702-7.188zM14.545 41.689c2.415 0 4.364-1.927 4.364-4.313 0-2.386-1.949-4.313-4.363-4.313-2.415 0-4.364 1.927-4.364 4.313 0 2.386 1.949 4.313 4.364 4.313zM55.273 11.5L64 23v14.375h-5.818c0 4.773-3.898 8.625-8.727 8.625-4.83 0-8.728-3.852-8.728-8.625H23.273c0 4.773-3.898 8.625-8.727 8.625-4.83 0-8.728-3.852-8.728-8.625H0V5.75C0 2.559 2.59 0 5.818 0h40.727v11.5h8.728zM5.818 5.75v25.875H8.03a8.811 8.811 0 016.517-2.875 8.811 8.811 0 016.516 2.875h19.665V5.75H5.818zm20.364 2.875l10.182 10.063L26.182 28.75v-7.188H11.636v-5.75h14.546V8.625z"/></svg><svg viewBox="0 0 36 36" id="heart" xmlns="http://www.w3.org/2000/svg"><path d="M18.18 30.507l-.18.196-.198-.196C9.252 22.05 3.6 16.46 3.6 10.79c0-3.924 2.7-6.866 6.3-6.866 2.772 0 5.472 1.962 6.426 4.63h3.348c.954-2.668 3.654-4.63 6.426-4.63 3.6 0 6.3 2.942 6.3 6.866 0 5.67-5.652 11.261-14.22 19.717zM26.1 0c-3.132 0-6.138 1.59-8.1 4.08C16.038 1.59 13.032 0 9.9 0 4.356 0 0 4.728 0 10.79c0 7.396 6.12 13.459 15.39 22.62L18 36l2.61-2.59C29.88 24.25 36 18.186 36 10.79 36 4.728 31.644 0 26.1 0z"/></svg><svg viewBox="0 0 32 32" id="heart-1" xmlns="http://www.w3.org/2000/svg"><path d="M16 32l-2.32-2.302C5.44 21.554 0 16.166 0 9.591 0 4.203 3.872 0 8.8 0c2.784 0 5.456 1.413 7.2 3.627C17.744 1.413 20.416 0 23.2 0 28.128 0 32 4.203 32 9.591c0 6.575-5.44 11.963-13.68 20.107L16 32z"/></svg><svg viewBox="0 0 502.664 502.664" id="icon" xmlns="http://www.w3.org/2000/svg"><path d="M153.821 358.226L0 274.337v-46.463l153.821-83.414v54.574L46.636 250.523l107.185 53.431v54.272zm26.273 29.358L282.103 115.08h32.227L212.084 387.584h-31.99zm168.749-29.358v-54.272l107.164-52.999-107.164-52.59v-53.927l153.821 83.522v46.183l-153.821 84.083z"/></svg><svg viewBox="0 0 14 18" id="location" xmlns="http://www.w3.org/2000/svg"><path d="M7 9c.458 0 .85-.163 1.178-.49.326-.326.489-.718.489-1.177 0-.458-.163-.85-.49-1.177A1.607 1.607 0 007 5.666c-.458 0-.85.164-1.177.49-.326.327-.49.719-.49 1.177 0 .459.164.85.49 1.177C6.15 8.837 6.542 9 7 9zm0 6.125c1.694-1.556 2.951-2.969 3.77-4.24C11.59 9.615 12 8.486 12 7.5c0-1.514-.483-2.754-1.448-3.72C9.587 2.817 8.402 2.334 7 2.334c-1.403 0-2.587.483-3.553 1.448C2.482 4.746 2 5.986 2 7.5c0 .986.41 2.114 1.23 3.385.819 1.271 2.076 2.684 3.77 4.24zm0 1.896a.999.999 0 01-.625-.23C4.347 15 2.833 13.338 1.833 11.804c-1-1.536-1.5-2.97-1.5-4.303 0-2.083.67-3.743 2.011-4.98C3.684 1.286 5.236.668 7 .668c1.764 0 3.316.618 4.656 1.854 1.34 1.236 2.01 2.896 2.01 4.979 0 1.333-.5 2.768-1.5 4.303-1 1.534-2.513 3.197-4.541 4.989A.998.998 0 017 17.02z"/></svg><svg viewBox="0 0 32 32" id="mail" xmlns="http://www.w3.org/2000/svg"><path d="M5.333 26.666c-.733 0-1.36-.26-1.882-.782A2.57 2.57 0 012.667 24V8c0-.734.261-1.361.784-1.883a2.565 2.565 0 011.882-.784h21.334c.733 0 1.361.261 1.884.784A2.57 2.57 0 0129.333 8v16a2.57 2.57 0 01-.782 1.884 2.571 2.571 0 01-1.884.782H5.333zm21.334-16L16.7 16.9a1.369 1.369 0 01-.35.149c-.122.034-.239.05-.35.05-.111 0-.228-.016-.35-.05a1.369 1.369 0 01-.35-.15l-9.967-6.233V24h21.334V10.666zm-10.667 4L26.667 8H5.333L16 14.666zM5.333 11V9.033v.033-.017 1.95z"/></svg><svg viewBox="0 0 16 4" id="minus" xmlns="http://www.w3.org/2000/svg"><path d="M15.11 3.016H.89V.984h14.22v2.032z"/></svg><svg viewBox="0 0 64 64" id="modal-close" xmlns="http://www.w3.org/2000/svg"><path d="M48.8 15.227a2.656 2.656 0 00-3.76 0L32 28.24 18.96 15.2a2.658 2.658 0 00-3.76 3.76L28.24 32 15.2 45.04a2.658 2.658 0 003.76 3.76L32 35.76 45.04 48.8a2.659 2.659 0 003.76-3.76L35.76 32 48.8 18.96c1.014-1.013 1.014-2.72 0-3.733z" fill-opacity=".5"/></svg><svg viewBox="0 0 64 64" id="payment" xmlns="http://www.w3.org/2000/svg"><path d="M13.333 8A5.333 5.333 0 008 13.333v37.334A5.333 5.333 0 0013.333 56h37.334A5.333 5.333 0 0056 50.667v-6.08A5.333 5.333 0 0058.667 40V24A5.333 5.333 0 0056 19.413v-6.08A5.333 5.333 0 0050.667 8H13.333zm0 5.333h37.334v5.334h-16A5.333 5.333 0 0029.333 24v16a5.333 5.333 0 005.334 5.333h16v5.334H13.333V13.333zM34.667 24h18.666v16H34.667V24zm8 4a4 4 0 100 8 4 4 0 000-8z"/></svg><svg viewBox="0 0 36 36" id="personal-area" xmlns="http://www.w3.org/2000/svg"><path fill-rule="evenodd" clip-rule="evenodd" d="M18 32.625a14.57 14.57 0 007.313-1.957v-4.793a5.062 5.062 0 00-5.063-5.063h-4.5a5.062 5.062 0 00-5.063 5.063v4.793A14.557 14.557 0 0018 32.624zm10.688-6.75v2.108a14.626 14.626 0 10-21.375 0v-2.108a8.442 8.442 0 015.593-7.947 6.75 6.75 0 1110.188 0 8.442 8.442 0 015.593 7.947zM18 36a18 18 0 100-36 18 18 0 000 36zm3.375-22.5a3.375 3.375 0 11-6.75 0 3.375 3.375 0 016.75 0z"/></svg><svg viewBox="0 0 16 16" id="plus" xmlns="http://www.w3.org/2000/svg"><path d="M15.111 9.016H9.016v6.095H6.984V9.016H.89V6.984h6.095V.89h2.032v6.095h6.095v2.032z"/></svg><svg viewBox="0 0 128 128" id="plus-big" xmlns="http://www.w3.org/2000/svg"><path d="M128 73.143H73.143V128H54.857V73.143H0V54.857h54.857V0h18.286v54.857H128v18.286z"/></svg><svg viewBox="0 0 24 24" id="search" xmlns="http://www.w3.org/2000/svg"><path d="M21.2 23.067L13.733 15.6a8.127 8.127 0 01-5.067 1.733c-2.422 0-4.471-.838-6.149-2.516S0 11.09 0 8.667c0-2.423.84-4.473 2.517-6.151C4.195.839 6.244 0 8.667 0c2.422 0 4.472.839 6.15 2.516 1.678 1.678 2.516 3.728 2.516 6.15a8.127 8.127 0 01-1.733 5.067l7.5 7.5c.244.245.367.545.367.9 0 .356-.134.667-.4.934-.245.244-.556.366-.934.366-.377 0-.689-.122-.933-.366zm-12.533-8.4c1.666 0 3.083-.583 4.25-1.75 1.167-1.167 1.75-2.584 1.75-4.25 0-1.667-.583-3.084-1.75-4.251-1.167-1.166-2.584-1.75-4.25-1.75-1.667 0-3.084.584-4.251 1.75C3.25 5.583 2.666 7 2.666 8.666c0 1.667.584 3.084 1.75 4.251 1.167 1.167 2.584 1.75 4.25 1.75z"/></svg><svg viewBox="0 0 18 18" id="search-button" xmlns="http://www.w3.org/2000/svg"><path d="M16.261 17.718l-5.727-5.735a6.225 6.225 0 01-3.886 1.331c-1.858 0-3.43-.644-4.717-1.932C.644 10.092 0 8.518 0 6.657c0-1.86.644-3.435 1.93-4.724C3.218.644 4.79 0 6.649 0s3.43.644 4.718 1.933c1.286 1.289 1.93 2.864 1.93 4.724a6.251 6.251 0 01-1.33 3.892l5.753 5.761a.94.94 0 01.281.691.983.983 0 01-.307.717.969.969 0 01-.716.282.969.969 0 01-.716-.282zm-9.613-6.452c1.278 0 2.365-.448 3.26-1.344.895-.896 1.342-1.985 1.342-3.265s-.447-2.368-1.342-3.265c-.895-.896-1.982-1.344-3.26-1.344-1.279 0-2.365.448-3.26 1.344-.895.897-1.343 1.985-1.343 3.265s.448 2.369 1.342 3.265c.895.896 1.982 1.344 3.26 1.344z"/></svg><svg viewBox="0 0 26 25" id="telegram" xmlns="http://www.w3.org/2000/svg"><path d="M24.07.996a2.974 2.974 0 00-.933.223h-.004c-.285.113-1.64.683-3.7 1.547l-7.382 3.109C6.754 8.105 1.547 10.3 1.547 10.3l.062-.024s-.359.118-.734.375a2.03 2.03 0 00-.586.567c-.184.27-.332.683-.277 1.11.09.722.558 1.155.894 1.394.34.242.664.355.664.355h.008l4.883 1.645c.219.703 1.488 4.875 1.793 5.836.18.574.355.933.574 1.207.106.14.23.257.379.35.077.046.16.081.246.107l-.05-.012c.015.004.027.016.038.02.04.01.067.015.118.023.773.234 1.394-.246 1.394-.246l.035-.028 2.883-2.625 4.832 3.707.11.047c1.007.442 2.027.196 2.566-.238.543-.437.754-.996.754-.996l.035-.09 3.734-19.13c.106-.471.133-.913.016-1.342-.12-.435-.4-.808-.781-1.047a1.872 1.872 0 00-1.067-.27zm-.101 2.05c-.004.063.008.056-.02.177v.01l-3.699 18.93c-.016.028-.043.087-.117.146-.078.062-.14.1-.465-.028l-5.91-4.531-3.57 3.254.75-4.79 9.656-9c.398-.37.265-.448.265-.448.028-.454-.601-.133-.601-.133L8.082 14.176l-.004-.02-5.836-1.965v-.004l-.015-.003a.27.27 0 00.03-.012l.032-.016.031-.011s5.211-2.196 10.508-4.426c2.652-1.117 5.324-2.242 7.379-3.11a804.512 804.512 0 013.66-1.53c.082-.032.043-.033.102-.033z"/></svg><svg viewBox="0 0 20 30" id="telephone" xmlns="http://www.w3.org/2000/svg"><path d="M8 25.666h4a.64.64 0 00.467-.2.64.64 0 00.2-.466.64.64 0 00-.2-.467.64.64 0 00-.467-.2H8a.64.64 0 00-.467.2.64.64 0 00-.2.467.64.64 0 00.2.466.64.64 0 00.467.2zm-4.667 4c-.733 0-1.36-.26-1.882-.782A2.569 2.569 0 01.667 27V3c0-.734.261-1.362.784-1.884A2.567 2.567 0 013.333.333h13.334c.733 0 1.361.26 1.884.783.521.522.782 1.15.782 1.884v24a2.57 2.57 0 01-.782 1.884 2.571 2.571 0 01-1.884.782H3.333zm0-9.333h13.334V7H3.333v13.333zm0 2.667v4h13.334v-4H3.333zm0-18.667h13.334V3H3.333v1.333z"/></svg><svg viewBox="0 0 32 32" id="time" xmlns="http://www.w3.org/2000/svg"><path d="M15.987 2.667C8.627 2.667 2.667 8.64 2.667 16s5.96 13.334 13.32 13.334c7.373 0 13.346-5.974 13.346-13.334 0-7.36-5.973-13.333-13.346-13.333zm.013 24c-5.893 0-10.667-4.773-10.667-10.667 0-5.893 4.774-10.666 10.667-10.666S26.667 10.107 26.667 16c0 5.894-4.774 10.667-10.667 10.667zm.667-17.333h-2v8l7 4.2 1-1.64-6-3.56v-7z"/></svg><svg viewBox="0 0 24 25" id="whatsapp" xmlns="http://www.w3.org/2000/svg"><path fill-rule="evenodd" clip-rule="evenodd" d="M20.504 3.504A11.874 11.874 0 0012.05 0C5.465 0 .1 5.36.1 11.945a11.882 11.882 0 001.594 5.973L0 24.109l6.336-1.664a11.957 11.957 0 005.71 1.457h.005c6.586 0 11.945-5.359 11.949-11.949 0-3.191-1.242-6.191-3.496-8.45v.001zM12.05 21.883h-.004A9.93 9.93 0 016.991 20.5l-.363-.215-3.762.985 1.004-3.665-.234-.375a9.904 9.904 0 01-1.52-5.285c0-5.472 4.457-9.925 9.938-9.925a9.863 9.863 0 017.02 2.91 9.875 9.875 0 012.905 7.023c0 5.477-4.456 9.93-9.929 9.93zm5.445-7.438c-.297-.148-1.766-.87-2.039-.968-.273-.102-.473-.149-.672.148-.2.3-.77.973-.945 1.172-.172.195-.348.223-.645.074-.3-.148-1.261-.465-2.402-1.484-.887-.79-1.488-1.77-1.66-2.067-.176-.3-.02-.46.129-.61.136-.132.3-.347.449-.523.148-.171.2-.296.3-.496.098-.199.048-.375-.027-.523-.074-.148-.671-1.621-.921-2.219-.243-.582-.489-.5-.672-.511-.172-.008-.371-.008-.57-.008-.2 0-.524.074-.798.375-.273.297-1.043 1.02-1.043 2.488 0 1.469 1.07 2.89 1.22 3.09.148.195 2.105 3.21 5.1 4.504.555.24 1.123.45 1.7.629.715.226 1.367.195 1.883.12.574-.085 1.765-.722 2.015-1.421.247-.695.247-1.293.172-1.418-.074-.125-.273-.2-.574-.352z"/></svg></svg>