<svg width="16" height="13" viewBox="0 0 16 13" fill="none" xmlns="http://www.w3.org/2000/svg">
<path d="M5.33307 9.13324L13.1997 1.26657C13.4442 1.02212 13.7553 0.899902 14.1331 0.899902C14.5109 0.899902 14.822 1.02212 15.0664 1.26657C15.3109 1.51101 15.4331 1.82212 15.4331 2.1999C15.4331 2.57768 15.3109 2.88879 15.0664 3.13324L6.26641 11.9332C5.99974 12.1999 5.68863 12.3332 5.33307 12.3332C4.97752 12.3332 4.66641 12.1999 4.39974 11.9332L0.933072 8.46657C0.688628 8.22213 0.566406 7.91101 0.566406 7.53324C0.566406 7.15546 0.688628 6.84435 0.933072 6.5999C1.17752 6.35546 1.48863 6.23324 1.86641 6.23324C2.24418 6.23324 2.5553 6.35546 2.79974 6.5999L5.33307 9.13324Z" fill="#EFEEEE"/>
</svg>
