<svg width="348" height="312" viewBox="0 0 348 312" fill="none" xmlns="http://www.w3.org/2000/svg">
<path d="M278 208H243.333V242.667H278M278 138.667H243.333V173.333H278M312.666 277.333H174V242.667H208.666V208H174V173.333H208.666V138.667H174V104H312.666M139.333 69.3333H104.666V34.6667H139.333M139.333 138.667H104.666V104H139.333M139.333 208H104.666V173.333H139.333M139.333 277.333H104.666V242.667H139.333M69.9998 69.3333H35.3332V34.6667H69.9998M69.9998 138.667H35.3332V104H69.9998M69.9998 208H35.3332V173.333H69.9998M69.9998 277.333H35.3332V242.667H69.9998M174 69.3333V0H0.666504V312H347.333V69.3333H174Z" fill="url(#paint0_linear_253_2864)" fill-opacity="0.4"/>
<defs>
<linearGradient id="paint0_linear_253_2864" x1="137.918" y1="468" x2="363.197" y2="420.609" gradientUnits="userSpaceOnUse">
<stop stop-color="#AD6ED3"/>
<stop offset="1" stop-color="#EFA1C3"/>
</linearGradient>
</defs>
</svg>
