<svg width="164" height="164" viewBox="0 0 164 164" fill="none" xmlns="http://www.w3.org/2000/svg">
<path d="M81.9987 44.4167C94.5634 44.3749 106.885 47.8797 117.547 54.5281C128.208 61.1766 136.777 70.6988 142.269 82C130.994 105.028 107.965 119.583 81.9987 119.583C56.032 119.583 33.0037 105.028 21.7287 82C27.2201 70.6988 35.7892 61.1766 46.4509 54.5281C57.1126 47.8797 69.434 44.3749 81.9987 44.4167ZM81.9987 30.75C47.832 30.75 18.6537 52.0017 6.83203 82C18.6537 111.998 47.832 133.25 81.9987 133.25C116.165 133.25 145.344 111.998 157.165 82C145.344 52.0017 116.165 30.75 81.9987 30.75ZM81.9987 64.9167C86.5295 64.9167 90.8747 66.7165 94.0784 69.9203C97.2822 73.124 99.082 77.4692 99.082 82C99.082 86.5308 97.2822 90.876 94.0784 94.0797C90.8747 97.2835 86.5295 99.0833 81.9987 99.0833C77.4679 99.0833 73.1227 97.2835 69.919 94.0797C66.7152 90.876 64.9154 86.5308 64.9154 82C64.9154 77.4692 66.7152 73.124 69.919 69.9203C73.1227 66.7165 77.4679 64.9167 81.9987 64.9167ZM81.9987 51.25C65.052 51.25 51.2487 65.0533 51.2487 82C51.2487 98.9467 65.052 112.75 81.9987 112.75C98.9454 112.75 112.749 98.9467 112.749 82C112.749 65.0533 98.9454 51.25 81.9987 51.25Z" fill="url(#paint0_linear_1225_26289)" fill-opacity="0.5"/>
<defs>
<linearGradient id="paint0_linear_1225_26289" x1="66.3518" y1="184.5" x2="161.065" y2="158.2" gradientUnits="userSpaceOnUse">
<stop stop-color="#AD6ED3"/>
<stop offset="1" stop-color="#EFA1C3"/>
</linearGradient>
</defs>
</svg>
