<svg width="164" height="164" viewBox="0 0 164 164" fill="none" xmlns="http://www.w3.org/2000/svg">
<circle cx="82" cy="82" r="82" fill="#AD6ED3" fill-opacity="0.5"/>
<path d="M62.6667 111C60.0083 111 57.7318 110.053 55.8372 108.158C53.9425 106.263 52.9968 103.988 53 101.333V62.6667C53 60.0083 53.9473 57.7318 55.842 55.8372C57.7367 53.9425 60.0116 52.9968 62.6667 53H101.333C103.992 53 106.268 53.9473 108.163 55.842C110.058 57.7367 111.003 60.0116 111 62.6667V101.333C111 103.992 110.053 106.268 108.158 108.163C106.263 110.058 103.988 111.003 101.333 111H62.6667ZM62.6667 101.333H101.333V62.6667H62.6667V101.333Z" fill="#EFEEEE"/>
</svg>
