<svg width="316" height="316" viewBox="0 0 316 316" fill="none" xmlns="http://www.w3.org/2000/svg">
<path d="M118.499 105.333H197.499V78.9998C197.499 68.0276 193.659 58.7012 185.979 51.0207C178.298 43.3401 168.972 39.4998 157.999 39.4998C147.027 39.4998 137.701 43.3401 130.02 51.0207C122.34 58.7012 118.499 68.0276 118.499 78.9998V105.333ZM236.999 302.833C218.785 302.833 203.258 296.412 190.416 283.57C177.574 270.728 171.157 255.205 171.166 237C171.166 218.786 177.587 203.258 190.429 190.416C203.271 177.574 218.794 171.158 236.999 171.167C255.213 171.167 270.741 177.587 283.583 190.429C296.425 203.271 302.841 218.795 302.833 237C302.833 255.214 296.412 270.742 283.57 283.583C270.728 296.425 255.204 302.842 236.999 302.833ZM161.291 289.667H78.9994C71.7577 289.667 65.5562 287.086 60.3949 281.924C55.2335 276.763 52.6573 270.566 52.666 263.333V131.667C52.666 124.425 55.2467 118.223 60.408 113.062C65.5694 107.901 71.7665 105.324 78.9994 105.333H92.166V78.9998C92.166 60.786 98.587 45.2581 111.429 32.4162C124.271 19.5743 139.794 13.1577 157.999 13.1665C176.213 13.1665 191.741 19.5875 204.583 32.4293C217.425 45.2712 223.841 60.7947 223.833 78.9998V105.333H236.999C244.241 105.333 250.443 107.914 255.604 113.075C260.765 118.237 263.341 124.434 263.333 131.667V148.783C258.944 147.247 254.555 146.203 250.166 145.65C245.777 145.097 241.388 144.824 236.999 144.833C211.324 144.833 189.542 153.778 171.653 171.667C153.764 189.556 144.824 211.334 144.833 237C144.833 246.436 146.316 255.596 149.283 264.479C152.25 273.362 156.253 281.758 161.291 289.667ZM236.999 237C242.485 237 247.151 235.077 250.996 231.233C254.84 227.388 256.758 222.727 256.749 217.25C256.749 211.764 254.827 207.098 250.982 203.254C247.138 199.409 242.477 197.491 236.999 197.5C231.513 197.5 226.848 199.422 223.003 203.267C219.159 207.111 217.241 211.773 217.249 217.25C217.249 222.736 219.172 227.401 223.016 231.246C226.861 235.091 231.522 237.009 236.999 237ZM236.999 276.5C243.583 276.5 249.727 274.964 255.433 271.891C261.138 268.819 265.856 264.54 269.587 259.054C264.54 255.982 259.273 253.73 253.787 252.299C248.301 250.869 242.705 250.158 236.999 250.166C231.294 250.166 225.698 250.878 220.212 252.299C214.726 253.721 209.459 255.973 204.412 259.054C208.142 264.54 212.86 268.819 218.566 271.891C224.272 274.964 230.416 276.5 236.999 276.5Z" fill="url(#paint0_linear_261_5170)" fill-opacity="0.4"/>
<defs>
<linearGradient id="paint0_linear_261_5170" x1="151.712" y1="447.667" x2="317.054" y2="420.631" gradientUnits="userSpaceOnUse">
<stop stop-color="#AD6ED3"/>
<stop offset="1" stop-color="#EFA1C3"/>
</linearGradient>
</defs>
</svg>
