<svg width="263" height="263" viewBox="0 0 263 263" fill="none" xmlns="http://www.w3.org/2000/svg">
<path d="M142.458 127.117L169.854 154.513C171.863 156.522 172.868 159.078 172.868 162.183C172.868 165.288 171.863 167.845 169.854 169.854C167.845 171.863 165.288 172.868 162.183 172.868C159.079 172.868 156.522 171.863 154.513 169.854L123.829 139.171C122.733 138.075 121.911 136.844 121.364 135.478C120.816 134.112 120.542 132.694 120.542 131.226V87.6667C120.542 84.5618 121.594 81.9574 123.698 79.8534C125.802 77.7494 128.402 76.701 131.5 76.7083C134.605 76.7083 137.209 77.7603 139.313 79.8643C141.417 81.9683 142.466 84.5691 142.458 87.6667V127.117ZM131.5 230.125C109.401 230.125 89.5844 223.594 72.0511 210.532C54.5177 197.469 42.7375 180.44 36.7105 159.444C35.7973 156.156 36.1187 153.051 37.6748 150.129C39.2309 147.207 41.649 145.381 44.9292 144.65C48.0341 143.919 50.8211 144.606 53.2904 146.71C55.7597 148.814 57.4473 151.415 58.3532 154.513C63.1018 170.585 72.2812 183.552 85.8914 193.415C99.5017 203.277 114.705 208.208 131.5 208.208C152.869 208.208 170.998 200.764 185.886 185.875C200.775 170.987 208.216 152.861 208.208 131.5C208.208 110.131 200.764 92.0025 185.875 77.1138C170.987 62.2251 152.861 54.7844 131.5 54.7917C118.898 54.7917 107.118 57.7139 96.1594 63.5583C85.2011 69.4028 75.9778 77.4389 68.4896 87.6667H87.6667C90.7716 87.6667 93.376 88.7187 95.48 90.8227C97.584 92.9267 98.6323 95.5274 98.625 98.625C98.625 101.73 97.573 104.334 95.469 106.438C93.365 108.542 90.7643 109.591 87.6667 109.583H43.8334C40.7285 109.583 38.1241 108.531 36.0201 106.427C33.9161 104.323 32.8677 101.723 32.875 98.625V54.7917C32.875 51.6868 33.927 49.0824 36.031 46.9784C38.135 44.8744 40.7358 43.826 43.8334 43.8333C46.9382 43.8333 49.5427 44.8853 51.6467 46.9893C53.7507 49.0933 54.799 51.6941 54.7917 54.7917V69.5854C64.1063 57.8965 75.4774 48.8559 88.905 42.4635C102.333 36.0712 116.531 32.875 131.5 32.875C145.198 32.875 158.03 35.4794 169.997 40.6883C181.963 45.8972 192.374 52.9251 201.228 61.7721C210.082 70.6338 217.114 81.0442 222.323 93.0034C227.532 104.963 230.132 117.795 230.125 131.5C230.125 145.198 227.521 158.03 222.312 169.997C217.103 181.963 210.075 192.374 201.228 201.228C192.366 210.082 181.956 217.114 169.997 222.323C158.037 227.532 145.205 230.132 131.5 230.125Z" fill="url(#paint0_linear_261_5678)" fill-opacity="0.4"/>
<defs>
<linearGradient id="paint0_linear_261_5678" x1="110.97" y1="328.75" x2="240.192" y2="304.285" gradientUnits="userSpaceOnUse">
<stop stop-color="#AD6ED3"/>
<stop offset="1" stop-color="#EFA1C3"/>
</linearGradient>
</defs>
</svg>
