<svg width="90" height="18" viewBox="0 0 90 18" fill="none" xmlns="http://www.w3.org/2000/svg">
<path d="M9 0L11.0206 6.21885H17.5595L12.2694 10.0623L14.2901 16.2812L9 12.4377L3.70993 16.2812L5.73056 10.0623L0.440492 6.21885H6.97937L9 0Z" fill="#D9D9D9"/>
<path d="M27.5 0L29.6329 6.21885H36.535L30.9511 10.0623L33.084 16.2812L27.5 12.4377L21.916 16.2812L24.0489 10.0623L18.465 6.21885H25.3671L27.5 0Z" fill="#D9D9D9"/>
<path d="M45 0L46.7961 6.21885H52.6085L47.9062 10.0623L49.7023 16.2812L45 12.4377L40.2977 16.2812L42.0938 10.0623L37.3915 6.21885H43.2039L45 0Z" fill="#D9D9D9"/>
<path d="M62.5 0L64.6329 6.21885H71.535L65.9511 10.0623L68.084 16.2812L62.5 12.4377L56.916 16.2812L59.0489 10.0623L53.465 6.21885H60.3671L62.5 0Z" fill="#D9D9D9"/>
<path d="M81 0L83.0206 6.21885H89.5595L84.2694 10.0623L86.2901 16.2812L81 12.4377L75.7099 16.2812L77.7306 10.0623L72.4405 6.21885H78.9794L81 0Z" fill="#D9D9D9"/>
</svg>
