<svg width="64" height="64" viewBox="0 0 64 64" fill="none" xmlns="http://www.w3.org/2000/svg">
<path d="M26.6666 5.33325C23.7066 5.33325 21.3333 7.70659 21.3333 10.6666V18.6666C21.3333 21.6266 23.7066 23.9999 26.6666 23.9999H29.3333V29.3333H5.33331V34.6666H16V39.9999H13.3333C10.3733 39.9999 7.99998 42.3732 7.99998 45.3332V53.3332C7.99998 56.2932 10.3733 58.6666 13.3333 58.6666H24C26.96 58.6666 29.3333 56.2932 29.3333 53.3332V45.3332C29.3333 42.3732 26.96 39.9999 24 39.9999H21.3333V34.6666H42.6666V39.9999H40C37.04 39.9999 34.6666 42.3732 34.6666 45.3332V53.3332C34.6666 56.2932 37.04 58.6666 40 58.6666H50.6666C53.6266 58.6666 56 56.2932 56 53.3332V45.3332C56 42.3732 53.6266 39.9999 50.6666 39.9999H48V34.6666H58.6666V29.3333H34.6666V23.9999H37.3333C40.2933 23.9999 42.6666 21.6266 42.6666 18.6666V10.6666C42.6666 7.70659 40.2933 5.33325 37.3333 5.33325H26.6666ZM26.6666 10.6666H37.3333V18.6666H26.6666V10.6666ZM13.3333 45.3332H24V53.3332H13.3333V45.3332ZM40 45.3332H50.6666V53.3332H40V45.3332Z" fill="#1E1E1E"/>
</svg>
