<svg width="36" height="36" viewBox="0 0 36 36" fill="none" xmlns="http://www.w3.org/2000/svg">
<path d="M13.3125 31.65L25.95 19.05C26.1 18.9 26.206 18.7375 26.268 18.5625C26.331 18.3875 26.3625 18.2 26.3625 18C26.3625 17.8 26.331 17.6125 26.268 17.4375C26.206 17.2625 26.1 17.1 25.95 16.95L13.3125 4.31251C12.9625 3.96251 12.525 3.78751 12 3.78751C11.475 3.78751 11.025 3.97501 10.65 4.35001C10.275 4.72501 10.0875 5.16251 10.0875 5.66251C10.0875 6.16251 10.275 6.60001 10.65 6.97501L21.675 18L10.65 29.025C10.3 29.375 10.125 29.806 10.125 30.318C10.125 30.831 10.3125 31.275 10.6875 31.65C11.0625 32.025 11.5 32.2125 12 32.2125C12.5 32.2125 12.9375 32.025 13.3125 31.65Z" fill="white"/>
</svg>
