<svg width="36" height="37" viewBox="0 0 36 37" fill="none" xmlns="http://www.w3.org/2000/svg">
<path d="M4.35002 13.8123L16.95 26.4498C17.1 26.5998 17.2625 26.7058 17.4375 26.7678C17.6125 26.8308 17.8 26.8623 18 26.8623C18.2 26.8623 18.3875 26.8308 18.5625 26.7678C18.7375 26.7058 18.9 26.5998 19.05 26.4498L31.6875 13.8123C32.0375 13.4623 32.2125 13.0248 32.2125 12.4998C32.2125 11.9748 32.025 11.5248 31.65 11.1498C31.275 10.7748 30.8375 10.5873 30.3375 10.5873C29.8375 10.5873 29.4 10.7748 29.025 11.1498L18 22.1748L6.97502 11.1498C6.62502 10.7998 6.19402 10.6248 5.68202 10.6248C5.16902 10.6248 4.72502 10.8123 4.35002 11.1873C3.97502 11.5623 3.78752 11.9998 3.78752 12.4998C3.78752 12.9998 3.97502 13.4373 4.35002 13.8123Z" fill="#1E1E1E"/>
</svg>
