<svg width="64" height="64" viewBox="0 0 64 64" fill="none" xmlns="http://www.w3.org/2000/svg">
<path d="M32 0C37.0922 0 41.9758 2.12932 45.5765 5.91953C49.1772 9.70973 51.2 14.8504 51.2 20.2105V23.5789H64V30.3158H60.2656L57.8432 60.9112C57.7766 61.7529 57.412 62.5376 56.8217 63.1097C56.2314 63.6818 55.4584 63.9995 54.656 64H9.344C8.54159 63.9995 7.76863 63.6818 7.17831 63.1097C6.58799 62.5376 6.2234 61.7529 6.1568 60.9112L3.7312 30.3158H0V23.5789H12.8V20.2105C12.8 14.8504 14.8229 9.70973 18.4236 5.91953C22.0243 2.12932 26.9078 0 32 0ZM53.8432 30.3158H10.1536L12.288 57.2632H51.7088L53.8432 30.3158ZM35.2 37.0526V50.5263H28.8V37.0526H35.2ZM22.4 37.0526V50.5263H16V37.0526H22.4ZM48 37.0526V50.5263H41.6V37.0526H48ZM32 6.73684C28.716 6.73684 25.5577 8.06547 23.1782 10.4479C20.7987 12.8304 19.3802 16.0844 19.216 19.5368L19.2 20.2105V23.5789H44.8V20.2105C44.8 16.7537 43.5378 13.4291 41.2745 10.9244C39.0112 8.41972 35.9199 6.92653 32.64 6.75368L32 6.73684Z" fill="#AD6ED3"/>
</svg>
