<svg width="14" height="18" viewBox="0 0 14 18" fill="none" xmlns="http://www.w3.org/2000/svg">
<path d="M6.99999 9C7.45833 9 7.85083 8.83666 8.1775 8.51C8.50361 8.18389 8.66666 7.79166 8.66666 7.33333C8.66666 6.875 8.50361 6.4825 8.1775 6.15583C7.85083 5.82972 7.45833 5.66666 6.99999 5.66666C6.54166 5.66666 6.14944 5.82972 5.82333 6.15583C5.49666 6.4825 5.33333 6.875 5.33333 7.33333C5.33333 7.79166 5.49666 8.18389 5.82333 8.51C6.14944 8.83666 6.54166 9 6.99999 9ZM6.99999 15.125C8.69444 13.5694 9.95138 12.1561 10.7708 10.885C11.5903 9.61444 12 8.48611 12 7.5C12 5.98611 11.5172 4.74639 10.5517 3.78083C9.58666 2.81583 8.40277 2.33333 6.99999 2.33333C5.59722 2.33333 4.41305 2.81583 3.44749 3.78083C2.48249 4.74639 1.99999 5.98611 1.99999 7.5C1.99999 8.48611 2.40972 9.61444 3.22916 10.885C4.04861 12.1561 5.30555 13.5694 6.99999 15.125ZM6.99999 17.0208C6.88888 17.0208 6.77777 17 6.66666 16.9583C6.55555 16.9167 6.45833 16.8611 6.37499 16.7917C4.34722 15 2.83333 13.3369 1.83333 11.8025C0.833328 10.2675 0.333328 8.83333 0.333328 7.5C0.333328 5.41666 1.00361 3.75694 2.34416 2.52083C3.68416 1.28472 5.23611 0.666664 6.99999 0.666664C8.76388 0.666664 10.3158 1.28472 11.6558 2.52083C12.9964 3.75694 13.6667 5.41666 13.6667 7.5C13.6667 8.83333 13.1667 10.2675 12.1667 11.8025C11.1667 13.3369 9.65277 15 7.62499 16.7917C7.54166 16.8611 7.44444 16.9167 7.33333 16.9583C7.22222 17 7.11111 17.0208 6.99999 17.0208Z" fill="#AD6ED3"/>
</svg>
