<svg width="32" height="32" viewBox="0 0 32 32" fill="none" xmlns="http://www.w3.org/2000/svg">
<path d="M5.33333 26.6663C4.6 26.6663 3.97244 26.4055 3.45066 25.8837C2.928 25.361 2.66666 24.733 2.66666 23.9997V7.99967C2.66666 7.26634 2.928 6.63879 3.45066 6.11701C3.97244 5.59434 4.6 5.33301 5.33333 5.33301H26.6667C27.4 5.33301 28.028 5.59434 28.5507 6.11701C29.0724 6.63879 29.3333 7.26634 29.3333 7.99967V23.9997C29.3333 24.733 29.0724 25.361 28.5507 25.8837C28.028 26.4055 27.4 26.6663 26.6667 26.6663H5.33333ZM26.6667 10.6663L16.7 16.8997C16.5889 16.9663 16.472 17.0161 16.3493 17.049C16.2276 17.0828 16.1111 17.0997 16 17.0997C15.8889 17.0997 15.7724 17.0828 15.6507 17.049C15.528 17.0161 15.4111 16.9663 15.3 16.8997L5.33333 10.6663V23.9997H26.6667V10.6663ZM16 14.6663L26.6667 7.99967H5.33333L16 14.6663ZM5.33333 10.9997V9.03301V9.06634V9.04901V10.9997Z" fill="#AD6ED3"/>
</svg>
