<svg width="64" height="64" viewBox="0 0 64 64" fill="none" xmlns="http://www.w3.org/2000/svg">
<path d="M48.8006 15.2268C48.5539 14.9796 48.2609 14.7834 47.9383 14.6496C47.6157 14.5158 47.2698 14.4469 46.9206 14.4469C46.5713 14.4469 46.2255 14.5158 45.9029 14.6496C45.5803 14.7834 45.2873 14.9796 45.0406 15.2268L32.0006 28.2401L18.9606 15.2001C18.7137 14.9532 18.4206 14.7574 18.098 14.6238C17.7755 14.4902 17.4297 14.4214 17.0806 14.4214C16.7314 14.4214 16.3857 14.4902 16.0631 14.6238C15.7406 14.7574 15.4475 14.9532 15.2006 15.2001C14.9537 15.447 14.7579 15.7401 14.6243 16.0627C14.4906 16.3852 14.4219 16.731 14.4219 17.0801C14.4219 17.4293 14.4906 17.775 14.6243 18.0976C14.7579 18.4201 14.9537 18.7132 15.2006 18.9601L28.2406 32.0001L15.2006 45.0401C14.9537 45.287 14.7579 45.5801 14.6243 45.9027C14.4906 46.2252 14.4219 46.571 14.4219 46.9201C14.4219 47.2693 14.4906 47.615 14.6243 47.9376C14.7579 48.2601 14.9537 48.5532 15.2006 48.8001C15.4475 49.047 15.7406 49.2428 16.0631 49.3764C16.3857 49.5101 16.7314 49.5788 17.0806 49.5788C17.4297 49.5788 17.7755 49.5101 18.098 49.3764C18.4206 49.2428 18.7137 49.047 18.9606 48.8001L32.0006 35.7601L45.0406 48.8001C45.2875 49.047 45.5806 49.2428 45.9031 49.3764C46.2257 49.5101 46.5714 49.5788 46.9206 49.5788C47.2697 49.5788 47.6155 49.5101 47.938 49.3764C48.2606 49.2428 48.5537 49.047 48.8006 48.8001C49.0475 48.5532 49.2433 48.2601 49.3769 47.9376C49.5105 47.615 49.5793 47.2693 49.5793 46.9201C49.5793 46.571 49.5105 46.2252 49.3769 45.9027C49.2433 45.5801 49.0475 45.287 48.8006 45.0401L35.7606 32.0001L48.8006 18.9601C49.8139 17.9468 49.8139 16.2401 48.8006 15.2268Z" fill="#1E1E1E" fill-opacity="0.5"/>
</svg>
