<svg width="64" height="64" viewBox="0 0 64 64" fill="none" xmlns="http://www.w3.org/2000/svg">
<path d="M13.3333 8C11.9188 8 10.5623 8.5619 9.5621 9.5621C8.5619 10.5623 8 11.9188 8 13.3333V50.6667C8 52.0812 8.5619 53.4377 9.5621 54.4379C10.5623 55.4381 11.9188 56 13.3333 56H50.6667C52.0812 56 53.4377 55.4381 54.4379 54.4379C55.4381 53.4377 56 52.0812 56 50.6667V44.5867C56.8061 44.1213 57.4763 43.4531 57.9441 42.6485C58.412 41.8438 58.661 40.9307 58.6667 40V24C58.661 23.0693 58.412 22.1562 57.9441 21.3516C57.4763 20.5469 56.8061 19.8787 56 19.4133V13.3333C56 11.9188 55.4381 10.5623 54.4379 9.5621C53.4377 8.5619 52.0812 8 50.6667 8H13.3333ZM13.3333 13.3333H50.6667V18.6667H34.6667C33.2522 18.6667 31.8956 19.2286 30.8954 20.2288C29.8952 21.229 29.3333 22.5855 29.3333 24V40C29.3333 41.4145 29.8952 42.771 30.8954 43.7712C31.8956 44.7714 33.2522 45.3333 34.6667 45.3333H50.6667V50.6667H13.3333V13.3333ZM34.6667 24H53.3333V40H34.6667V24ZM42.6667 28C41.6058 28 40.5884 28.4214 39.8382 29.1716C39.0881 29.9217 38.6667 30.9391 38.6667 32C38.6667 33.0609 39.0881 34.0783 39.8382 34.8284C40.5884 35.5786 41.6058 36 42.6667 36C43.7275 36 44.7449 35.5786 45.4951 34.8284C46.2452 34.0783 46.6667 33.0609 46.6667 32C46.6667 30.9391 46.2452 29.9217 45.4951 29.1716C44.7449 28.4214 43.7275 28 42.6667 28Z" fill="#AD6ED3"/>
</svg>
