<svg width="20" height="30" viewBox="0 0 20 30" fill="none" xmlns="http://www.w3.org/2000/svg">
<path d="M8 25.6663H12C12.1778 25.6663 12.3333 25.5997 12.4667 25.4663C12.6 25.333 12.6667 25.1775 12.6667 24.9997C12.6667 24.8219 12.6 24.6663 12.4667 24.533C12.3333 24.3997 12.1778 24.333 12 24.333H8C7.82222 24.333 7.66666 24.3997 7.53333 24.533C7.4 24.6663 7.33333 24.8219 7.33333 24.9997C7.33333 25.1775 7.4 25.333 7.53333 25.4663C7.66666 25.5997 7.82222 25.6663 8 25.6663ZM3.33333 29.6663C2.6 29.6663 1.97244 29.4055 1.45066 28.8837C0.927997 28.361 0.666664 27.733 0.666664 26.9997V2.99967C0.666664 2.26634 0.927997 1.63834 1.45066 1.11567C1.97244 0.593897 2.6 0.333008 3.33333 0.333008H16.6667C17.4 0.333008 18.028 0.593897 18.5507 1.11567C19.0724 1.63834 19.3333 2.26634 19.3333 2.99967V26.9997C19.3333 27.733 19.0724 28.361 18.5507 28.8837C18.028 29.4055 17.4 29.6663 16.6667 29.6663H3.33333ZM3.33333 20.333H16.6667V6.99967H3.33333V20.333ZM3.33333 22.9997V26.9997H16.6667V22.9997H3.33333ZM3.33333 4.33301H16.6667V2.99967H3.33333V4.33301Z" fill="#AD6ED3"/>
</svg>
