<svg width="32" height="32" viewBox="0 0 32 32" fill="none" xmlns="http://www.w3.org/2000/svg">
<path d="M15.9867 2.66699C8.62666 2.66699 2.66666 8.64033 2.66666 16.0003C2.66666 23.3603 8.62666 29.3337 15.9867 29.3337C23.36 29.3337 29.3333 23.3603 29.3333 16.0003C29.3333 8.64033 23.36 2.66699 15.9867 2.66699ZM16 26.667C10.1067 26.667 5.33333 21.8937 5.33333 16.0003C5.33333 10.107 10.1067 5.33366 16 5.33366C21.8933 5.33366 26.6667 10.107 26.6667 16.0003C26.6667 21.8937 21.8933 26.667 16 26.667ZM16.6667 9.33366H14.6667V17.3337L21.6667 21.5337L22.6667 19.8937L16.6667 16.3337V9.33366Z" fill="#AD6ED3"/>
</svg>
